<svg width="35" height="36" viewBox="0 0 35 36" fill="none" xmlns="http://www.w3.org/2000/svg">
<path d="M17.3236 0C7.75369 0 0 8.01769 0 17.9134C0 27.8091 7.75369 35.8268 17.3236 35.8268C26.8934 35.8268 34.6471 27.8091 34.6471 17.9134C34.6471 8.01769 26.8934 0 17.3236 0ZM25.3567 12.1854C25.0982 15.0169 23.9666 21.8934 23.3938 25.0643C23.1493 26.4078 22.6743 26.8557 22.2133 26.899C21.2074 26.9929 20.446 26.2128 19.4681 25.5483C17.9453 24.5154 17.0791 23.8725 15.6052 22.8613C13.8938 21.6983 15.0044 21.0555 15.9754 20.0081C16.2339 19.7336 20.6625 15.5659 20.7464 15.1903C20.7603 15.1397 20.7673 14.9664 20.6625 14.8725C20.5578 14.7786 20.4111 14.8147 20.3063 14.8363C20.1526 14.87 17.7171 16.5338 12.9997 19.8275C12.3104 20.3187 11.6841 20.5571 11.1206 20.5426C10.4989 20.5282 9.31142 20.1815 8.42428 19.8853C7.34156 19.5242 6.47538 19.3291 6.55222 18.7079C6.58948 18.3853 7.02024 18.0555 7.8445 17.7184C12.8926 15.4455 16.2595 13.9455 17.9453 13.2184C22.7581 11.1525 23.757 10.7914 24.4067 10.7769C24.5534 10.7769 24.8677 10.813 25.0773 10.9864C25.214 11.1107 25.3012 11.2832 25.3217 11.4704C25.3595 11.7066 25.3712 11.9465 25.3567 12.1854Z" fill="white"/>
</svg>
