<svg width="34" height="36" viewBox="0 0 34 36" fill="none" xmlns="http://www.w3.org/2000/svg">
<path d="M29.5654 3.49173C28.706 2.67303 25.2277 0.0629932 17.4727 0.0280061C17.4727 0.0280061 8.33047 -0.538785 3.87777 3.68766C1.40104 6.24871 0.528095 10.0063 0.433357 14.6596C0.338619 19.3129 0.223579 28.0317 8.35077 30.3968H8.35754L8.35077 34.0075C8.35077 34.0075 8.29663 35.47 9.23048 35.7638C10.3538 36.1277 11.017 35.0151 12.0929 33.8186C12.6817 33.1608 13.4937 32.1952 14.1095 31.4604C19.672 31.9433 23.942 30.8377 24.4292 30.6767C25.5525 30.2989 31.9068 29.4592 32.9353 20.7404C34.0045 11.7417 32.4211 6.05978 29.5654 3.49173ZM30.506 20.0826C29.633 27.3599 24.4833 27.8218 23.536 28.1367C23.1299 28.2696 19.3742 29.2352 14.6576 28.9204C14.6576 28.9204 11.1388 33.3077 10.0425 34.4483C9.68387 34.8192 9.29138 34.7842 9.29815 34.0495C9.29815 33.5667 9.32522 28.0527 9.32522 28.0527C9.31845 28.0527 9.31845 28.0527 9.32522 28.0527C2.43639 26.0794 2.84242 18.6551 2.91685 14.7716C2.99129 10.888 3.70183 7.70418 5.7996 5.56297C9.56883 2.02927 17.3306 2.55408 17.3306 2.55408C23.8878 2.58207 27.0277 4.62531 27.7586 5.31106C30.1744 7.45227 31.406 12.5744 30.506 20.0826ZM21.0998 14.4287C21.1269 15.0305 20.254 15.0725 20.2269 14.4707C20.1525 12.9313 19.4554 12.1825 18.0208 12.0986C17.4389 12.0636 17.493 11.1609 18.0682 11.1959C19.9562 11.3009 21.0051 12.4204 21.0998 14.4287ZM22.4735 15.2194C22.5412 12.2525 20.7479 9.92936 17.3441 9.67045C16.7689 9.62847 16.8298 8.7258 17.405 8.76779C21.3299 9.06168 23.4209 11.8537 23.3465 15.2404C23.3397 15.8422 22.46 15.8142 22.4735 15.2194ZM25.654 16.1571C25.6608 16.7588 24.7811 16.7658 24.7811 16.1641C24.7405 10.4612 21.066 7.35431 16.6065 7.31932C16.0313 7.31232 16.0313 6.41665 16.6065 6.41665C21.5938 6.45164 25.6067 10.0133 25.654 16.1571ZM24.8894 23.0215V23.0355C24.1585 24.365 22.7916 25.8345 21.384 25.3657L21.3705 25.3447C19.9427 24.9318 16.5795 23.1405 14.4546 21.3911C13.3584 20.4955 12.3568 19.4389 11.5854 18.4242C10.8884 17.5216 10.1846 16.451 9.50116 15.1634C8.05979 12.4694 7.74174 11.2659 7.74174 11.2659C7.28835 9.8104 8.70265 8.39692 9.99515 7.6412H10.0087C10.6313 7.30533 11.2268 7.41728 11.626 7.9141C11.626 7.9141 12.4651 8.94972 12.8238 9.46053C13.1621 9.93636 13.6155 10.6991 13.8524 11.1259C14.2651 11.8886 14.008 12.6654 13.602 12.9872L12.7899 13.659C12.3771 14.0019 12.4313 14.6386 12.4313 14.6386C12.4313 14.6386 13.6358 19.3479 18.1359 20.5375C18.1359 20.5375 18.7517 20.5934 19.0833 20.1666L19.7329 19.3269C20.0442 18.9071 20.7953 18.6411 21.5329 19.068C22.5277 19.6488 23.7931 20.5514 24.6322 21.3701C25.1059 21.769 25.2142 22.3778 24.8894 23.0215Z" fill="white"/>
</svg>
