<svg width="34" height="35" viewBox="0 0 34 35" fill="none" xmlns="http://www.w3.org/2000/svg">
<path d="M9.40746 30.2422L9.40639 30.2416L9.0928 30.0501L4.12667 31.3818L3.29083 31.6059L3.5141 30.7699L4.83718 25.8152L4.62374 25.4679C4.6237 25.4678 4.62366 25.4677 4.62361 25.4677C3.20327 23.1589 2.45956 20.4982 2.45956 17.7618C2.45956 9.78674 8.80974 3.27569 16.6412 3.27569C20.4315 3.27569 23.9916 4.78674 26.6638 7.52773C29.324 10.2564 30.971 13.8881 30.9636 17.7694L9.40746 30.2422ZM9.40746 30.2422C11.5832 31.5633 14.0817 32.263 16.6338 32.263M9.40746 30.2422L16.6338 32.263M16.6338 32.263C24.4507 32.263 30.9634 25.7593 30.9636 17.7699L16.6338 32.263ZM2.85703 26.3055L2.90977 26.1086L2.80978 25.9309C1.41449 23.4519 0.680247 20.6407 0.680247 17.7618C0.680247 8.74865 7.84881 1.43298 16.6338 1.43298C20.8926 1.43298 24.8995 3.12863 27.9119 6.21703C30.9338 9.31523 32.7429 13.415 32.7429 17.7694C32.7429 26.7762 25.4175 34.0982 16.6338 34.0982H16.6264C13.9546 34.0982 11.3334 33.415 9.00665 32.1149L8.8293 32.0158L8.63309 32.0685L0.746544 34.1862L2.85703 26.3055ZM23.9033 21.7302L23.9033 21.7303L23.9098 21.7336C23.9927 21.7752 24.0632 21.8096 24.1249 21.8397C24.2346 21.8932 24.3165 21.9332 24.3904 21.9758C24.4264 21.9966 24.4494 22.0121 24.4632 22.0223C24.465 22.035 24.4669 22.0519 24.4686 22.0736C24.4753 22.1596 24.4755 22.2842 24.4623 22.4419C24.4361 22.7563 24.3594 23.172 24.2027 23.6248C24.088 23.9564 23.7108 24.3494 23.1844 24.6951C22.6686 25.0337 22.1294 25.2491 21.8282 25.2953C21.2168 25.3876 20.6945 25.4084 20.0194 25.2778C19.3293 25.1444 18.4615 24.8492 17.1693 24.2785C13.477 22.6444 10.9649 18.9889 10.4315 18.2128C10.3923 18.1558 10.3638 18.1143 10.3463 18.0903C10.3416 18.0838 10.3363 18.0764 10.3304 18.0681C10.2081 17.8976 9.83172 17.3727 9.4766 16.6565C9.09856 15.8941 8.76619 14.9568 8.76619 14.0322C8.76619 12.2935 9.57933 11.4018 9.99364 10.9474C10.0232 10.915 10.0508 10.8848 10.0758 10.8567C10.3446 10.5611 10.6457 10.4993 10.8009 10.4993C11.0795 10.4993 11.3366 10.4995 11.5546 10.5135L11.5565 10.5136C11.6032 10.5164 11.6493 10.5163 11.6796 10.5162L11.6859 10.5162C11.7212 10.5161 11.7422 10.5163 11.7614 10.5174C11.7932 10.5193 11.8011 10.5231 11.8032 10.5241L11.8034 10.5242C11.8043 10.5247 11.8283 10.5352 11.8708 10.589C11.9159 10.6461 11.9783 10.7475 12.0497 10.9228C12.1502 11.1708 12.2923 11.5248 12.4457 11.907C12.5523 12.1726 12.6643 12.4519 12.7718 12.7189C13.0269 13.3527 13.2689 13.95 13.3311 14.0774C13.3699 14.1567 13.3862 14.2112 13.3906 14.2526C13.3941 14.2859 13.3917 14.3232 13.3668 14.3764C13.0515 15.0204 12.7356 15.3588 12.4849 15.6274C12.4526 15.662 12.4214 15.6954 12.3914 15.7281C12.2706 15.8602 12.0924 16.0579 12.0252 16.3191C11.9477 16.6201 12.0366 16.8944 12.1747 17.1372L12.1749 17.1375C12.9966 18.58 13.8283 19.5709 14.7789 20.3616C15.7222 21.1462 16.7655 21.7186 17.9757 22.3375C18.2148 22.4618 18.487 22.5577 18.7766 22.5209C19.0856 22.4817 19.3098 22.3065 19.4755 22.1107C19.7118 21.8324 20.5228 20.8641 20.8188 20.4058C20.855 20.3498 20.8807 20.3232 20.8931 20.3121C20.9025 20.313 20.9184 20.3152 20.9426 20.3211C20.9926 20.3331 21.0554 20.3545 21.1472 20.3895L21.1472 20.3895L21.1555 20.3925C21.3111 20.4487 21.8784 20.7196 22.4977 21.0246C23.1003 21.3214 23.7043 21.6266 23.9033 21.7302Z" fill="white" stroke="white"/>
</svg>
