<svg width="31" height="32" viewBox="0 0 31 32" fill="none" xmlns="http://www.w3.org/2000/svg">
<path d="M15.8368 7.86636C11.533 7.86636 8.06153 11.456 8.06153 15.9064C8.06153 20.3568 11.533 23.9464 15.8368 23.9464C20.1407 23.9464 23.6121 20.3568 23.6121 15.9064C23.6121 11.456 20.1407 7.86636 15.8368 7.86636ZM15.8368 21.1335C13.0556 21.1335 10.7819 18.7893 10.7819 15.9064C10.7819 13.0235 13.0488 10.6793 15.8368 10.6793C18.6248 10.6793 20.8918 13.0235 20.8918 15.9064C20.8918 18.7893 18.6181 21.1335 15.8368 21.1335ZM25.7438 7.53749C25.7438 8.5801 24.9317 9.4128 23.9302 9.4128C22.9219 9.4128 22.1166 8.5731 22.1166 7.53749C22.1166 6.50187 22.9287 5.66218 23.9302 5.66218C24.9317 5.66218 25.7438 6.50187 25.7438 7.53749ZM30.8935 9.44079C30.7784 6.92871 30.2235 4.70353 28.4438 2.8702C26.6708 1.03688 24.5189 0.463092 22.0896 0.337138C19.5858 0.190192 12.0811 0.190192 9.57734 0.337138C7.15475 0.456094 5.00284 1.02988 3.22311 2.86321C1.44339 4.69653 0.895257 6.92171 0.773451 9.43379C0.631343 12.0228 0.631343 19.783 0.773451 22.372C0.88849 24.8841 1.44339 27.1093 3.22311 28.9426C5.00284 30.7759 7.14798 31.3497 9.57734 31.4757C12.0811 31.6226 19.5858 31.6226 22.0896 31.4757C24.5189 31.3567 26.6708 30.7829 28.4438 28.9426C30.2168 27.1093 30.7717 24.8841 30.8935 22.372C31.0356 19.783 31.0356 12.0298 30.8935 9.44079ZM27.6588 25.15C27.131 26.5215 26.1092 27.5781 24.7761 28.1309C22.7798 28.9496 18.0429 28.7607 15.8368 28.7607C13.6308 28.7607 8.88711 28.9426 6.8976 28.1309C5.57127 27.5851 4.54945 26.5285 4.01485 25.15C3.22311 23.0858 3.40582 18.1876 3.40582 15.9064C3.40582 13.6252 3.22988 8.72005 4.01485 6.66281C4.54268 5.29131 5.5645 4.2347 6.8976 3.68191C8.89387 2.86321 13.6308 3.05214 15.8368 3.05214C18.0429 3.05214 22.7866 2.8702 24.7761 3.68191C26.1024 4.22771 27.1242 5.28432 27.6588 6.66281C28.4506 8.72705 28.2679 13.6252 28.2679 15.9064C28.2679 18.1876 28.4506 23.0928 27.6588 25.15Z" fill="white"/>
</svg>
